<svg xmlns="http://www.w3.org/2000/svg" width="34.255" height="34.255" viewBox="0 0 34.255 34.255">
  <g id="Сгруппировать_123" data-name="Сгруппировать 123" transform="translate(-954.673 -2388.865)">
    <rect id="Прямоугольник_74" data-name="Прямоугольник 74" width="34.255" height="34.255" transform="translate(954.673 2388.865)" fill="none"/>
    <g id="Сгруппировать_120" data-name="Сгруппировать 120">
      <g id="Сгруппировать_119" data-name="Сгруппировать 119">
        <path id="Контур_108" data-name="Контур 108" d="M971.8,2389.175a16.815,16.815,0,1,0,16.486,13.5,17.05,17.05,0,0,0-16.486-13.5.941.941,0,0,0,0,1.882,14.932,14.932,0,1,1-14.672,12.114,15.11,15.11,0,0,1,14.672-12.114A.941.941,0,0,0,971.8,2389.175Z" fill="#b2b1b1"/>
      </g>
    </g>
    <g id="Сгруппировать_122" data-name="Сгруппировать 122">
      <path id="Контур_109" data-name="Контур 109" d="M981.33,2404.748a9.733,9.733,0,0,1-19.065.008" fill="none" stroke="#b2b1b1" stroke-miterlimit="10" stroke-width="0.627"/>
      <g id="Сгруппировать_121" data-name="Сгруппировать 121">
        <circle id="Эллипс_12" data-name="Эллипс 12" cx="1.773" cy="1.773" r="1.773" transform="translate(966.249 2400.69)" fill="#b2b1b1"/>
        <circle id="Эллипс_13" data-name="Эллипс 13" cx="1.773" cy="1.773" r="1.773" transform="translate(973.797 2400.69)" fill="#b2b1b1"/>
      </g>
    </g>
  </g>
</svg>
