<svg xmlns="http://www.w3.org/2000/svg" width="36.298" height="36.477" viewBox="0 0 36.298 36.477">
  <g id="Сгруппировать_97" data-name="Сгруппировать 97" transform="translate(-583.48 -2197.847)">
    <g id="Сгруппировать_93" data-name="Сгруппировать 93">
      <g id="Сгруппировать_92" data-name="Сгруппировать 92">
        <g id="Сгруппировать_91" data-name="Сгруппировать 91">
          <path id="Контур_96" data-name="Контур 96" d="M619.777,2211.592a4.508,4.508,0,0,0-4.754-4.365c-1.8-.022-3.6,0-5.394,0H589.485c-2.169,0-4.264.239-5.367,2.406-.889,1.748-.467,4.3-.467,6.207v7.381c0,2.2-.1,4.434,0,6.635a4.471,4.471,0,0,0,4.556,4.365c4.042.079,8.093,0,12.136,0H613.71c2.09,0,4.188-.061,5.415-2.071a5.647,5.647,0,0,0,.652-3.106v-17.452a.941.941,0,0,0-1.881,0V2225.7c0,1.6.532,4.652-.728,5.912-1.159,1.159-3.585.728-5.1.728H588.819c-1.132,0-2.2-.075-2.892-1.139-.577-.891-.4-2.121-.4-3.135v-12.873c0-1.872-.619-5.1,1.6-5.926a6.93,6.93,0,0,1,2.351-.159H612.2c2.133,0,5.525-.547,5.7,2.484C617.964,2212.8,619.846,2212.8,619.777,2211.592Z" fill="#b2b1b1"/>
        </g>
      </g>
    </g>
    <path id="Контур_97" data-name="Контур 97" d="M600.341,2224.586,598,2222.245a1.186,1.186,0,0,0-1.511-.17,1.142,1.142,0,0,0-.148,1.739l4.566,4.566a1.141,1.141,0,0,0,1.614,0l4.519-4.519a1.2,1.2,0,0,0,.229-1.416c-.411-.742-1.26-.565-1.772-.053l-2.414,2.217a.135.135,0,0,1-.227-.1v-10.572a1.184,1.184,0,0,0-.95-1.187,1.141,1.141,0,0,0-1.333,1.125v10.615A.136.136,0,0,1,600.341,2224.586Z" fill="#b2b1b1" fill-rule="evenodd"/>
    <g id="Сгруппировать_96" data-name="Сгруппировать 96">
      <g id="Сгруппировать_94" data-name="Сгруппировать 94">
        <path id="Контур_98" data-name="Контур 98" d="M590.3,2204.7h22.83a1.141,1.141,0,1,0,0-2.283H590.3a1.141,1.141,0,0,0,0,2.283Z" fill="#b2b1b1" fill-rule="evenodd"/>
      </g>
      <g id="Сгруппировать_95" data-name="Сгруппировать 95">
        <path id="Контур_99" data-name="Контур 99" d="M594.865,2200.13h13.7a1.141,1.141,0,1,0,0-2.283h-13.7a1.141,1.141,0,0,0,0,2.283Z" fill="#b2b1b1" fill-rule="evenodd"/>
      </g>
    </g>
    <rect id="Прямоугольник_57" data-name="Прямоугольник 57" width="34.255" height="34.255" transform="translate(583.48 2200.069)" fill="none"/>
  </g>
</svg>
