<svg xmlns="http://www.w3.org/2000/svg" width="34.255" height="34.255" viewBox="0 0 34.255 34.255">
  <g id="Сгруппировать_117" data-name="Сгруппировать 117" transform="translate(-583.48 -2388.817)">
    <rect id="Прямоугольник_72" data-name="Прямоугольник 72" width="34.255" height="34.255" transform="translate(583.48 2388.817)" fill="none"/>
    <path id="Контур_107" data-name="Контур 107" d="M613.721,2402.343h-.112a1.577,1.577,0,0,1-1.116-2.692h0a3.681,3.681,0,0,0,.431-4.777,3.61,3.61,0,0,0-5.454-.405h0a1.624,1.624,0,0,1-2.772-1.148h0a3.608,3.608,0,0,0-3.608-3.609h0a3.608,3.608,0,0,0-3.608,3.609v.112a1.577,1.577,0,0,1-2.693,1.115h0a3.68,3.68,0,0,0-4.776-.43,3.61,3.61,0,0,0-.406,5.454h0a1.623,1.623,0,0,1-1.148,2.771h0a3.608,3.608,0,0,0-3.608,3.609h0a3.608,3.608,0,0,0,3.608,3.608h.112a1.577,1.577,0,0,1,1.116,2.692h0a3.682,3.682,0,0,0-.431,4.777,3.61,3.61,0,0,0,5.454.406h0a1.624,1.624,0,0,1,2.772,1.148h0a3.608,3.608,0,0,0,3.608,3.608h0a3.608,3.608,0,0,0,3.608-3.608v-.113a1.578,1.578,0,0,1,2.693-1.115h0a3.68,3.68,0,0,0,4.776.431,3.61,3.61,0,0,0,.406-5.454h0a1.624,1.624,0,0,1,1.148-2.772h0a3.608,3.608,0,0,0,3.608-3.608h0A3.608,3.608,0,0,0,613.721,2402.343Z" fill="none" stroke="#b2b1b1" stroke-miterlimit="10" stroke-width="0.627"/>
    <circle id="Эллипс_11" data-name="Эллипс 11" cx="4.735" cy="4.735" r="4.735" transform="translate(596.337 2401.217)" fill="none" stroke="#b2b1b1" stroke-miterlimit="10" stroke-width="0.627"/>
  </g>
</svg>
