<svg xmlns="http://www.w3.org/2000/svg" width="38.5" height="34.255" viewBox="0 0 38.5 34.255">
  <g id="Сгруппировать_109" data-name="Сгруппировать 109" transform="translate(-768.455 -2388.865)">
    <rect id="Прямоугольник_64" data-name="Прямоугольник 64" width="34.255" height="34.255" transform="translate(769.076 2388.865)" fill="none"/>
    <g id="Сгруппировать_106" data-name="Сгруппировать 106">
      <g id="Сгруппировать_105" data-name="Сгруппировать 105">
        <path id="Контур_102" data-name="Контур 102" d="M787.669,2412.291c1.029-1.037,2.116-2.389,3.693-1.5a33.242,33.242,0,0,1,3.806,2.925c.991.772,2.66,1.6,2.711,3.028.047,1.36-1.447,2.3-2.4,3.032a3.993,3.993,0,0,1-4.3.741,37.694,37.694,0,0,1-4.208-2.423,43.432,43.432,0,0,1-6.986-5.289,39.081,39.081,0,0,1-5.327-6.187c-.786-1.138-1.494-2.323-2.206-3.508-.784-1.306-1.961-2.74-2.128-4.293-.179-1.662.837-2.854,1.831-4.046.834-1,1.9-2.045,3.263-1.178a6.989,6.989,0,0,1,1.449,1.652q.735.936,1.464,1.875c.785,1.011,2.46,2.5,2.351,3.907s-1.985,1.832-2.046,3.125c-.049,1.027,1.1,2.4,1.663,3.181a16.348,16.348,0,0,0,6.232,5.108c1.087.52,2.043-1.1.95-1.625a15.13,15.13,0,0,1-4.179-2.853,13.471,13.471,0,0,1-1.589-1.876,6.456,6.456,0,0,1-1.229-2.185l-.095.724c.833-1.166,1.924-1.708,2.133-3.264.214-1.6-.626-2.676-1.55-3.876q-1.524-1.98-3.069-3.945a4.547,4.547,0,0,0-3.21-2.123,3.974,3.974,0,0,0-3.048,1.077,11.88,11.88,0,0,0-2.8,3.805c-1.283,3.21.893,5.951,2.477,8.584a43.063,43.063,0,0,0,12.79,13.6c1.38.934,2.809,1.8,4.254,2.626s2.873,1.735,4.612,1.654a6.663,6.663,0,0,0,3.83-1.659c1.1-.871,2.371-1.766,2.789-3.174,1.039-3.494-3.047-5.513-5.3-7.261-1.213-.939-2.369-2.072-4-2.069-1.744,0-2.815,1.213-3.954,2.36A.941.941,0,0,0,787.669,2412.291Z" fill="#b2b1b1"/>
      </g>
    </g>
    <g id="Сгруппировать_108" data-name="Сгруппировать 108">
      <g id="Сгруппировать_107" data-name="Сгруппировать 107">
        <path id="Контур_103" data-name="Контур 103" d="M792.378,2398.3c0-1.784-.077-3.586,0-5.368.062-1.383,1.082-1.836,2.325-1.837h7.907a2.786,2.786,0,0,1,1.74.342c1.047.761.722,2.384.722,3.495q0,1.254,0,2.508a3.216,3.216,0,0,1-.335,1.96c-.766,1.078-2.406.745-3.534.745q-1.289,0-2.576,0a6.837,6.837,0,0,0-2.646.144,7.486,7.486,0,0,0-1.814,1.669l-1.063,1.063a8.662,8.662,0,0,0-.737.765,5.939,5.939,0,0,1,.011-.965q0-.707,0-1.413,0-1.554,0-3.107a.941.941,0,0,0-1.881,0q0,1.695,0,3.39a6.748,6.748,0,0,0,.213,2.966,1.851,1.851,0,0,0,1.913.979c.955-.154,1.649-1.124,2.294-1.768q.579-.579,1.158-1.16l.482-.484c.171-.172.533-.315.066-.2a8.011,8.011,0,0,1,1.717,0l1.86,0c1.782,0,3.923.369,5.412-.843,1.434-1.168,1.34-2.9,1.341-4.58q0-1.531,0-3.065a4.83,4.83,0,0,0-.509-2.527c-.906-1.56-2.471-1.8-4.121-1.8q-3.306,0-6.613,0a7,7,0,0,0-3.177.39,3.6,3.6,0,0,0-1.689,1.74,7.092,7.092,0,0,0-.348,3q0,1.977,0,3.955A.941.941,0,0,0,792.378,2398.3Z" fill="#b2b1b1"/>
      </g>
    </g>
  </g>
</svg>
