<svg xmlns="http://www.w3.org/2000/svg" width="43.357" height="38.036" viewBox="0 0 43.357 38.036">
  <g id="Сгруппировать_159" data-name="Сгруппировать 159" transform="translate(-302.135 -1080.074)">
    <g id="Контур_147" data-name="Контур 147" fill="none" stroke-miterlimit="10">
      <path d="M338.394,1080.074H315.482a7.1,7.1,0,0,0-7.1,7.108l.032,22.42a2.956,2.956,0,0,0,4.717,2.369l3.224-2.392a4.977,4.977,0,0,1,2.967-.981h19.069a7.1,7.1,0,0,0,7.1-7.1v-14.33A7.1,7.1,0,0,0,338.394,1080.074Z" stroke="none"/>
      <path d="M 315.4819946289062 1082.016845703125 C 314.1037902832031 1082.016845703125 312.8084716796875 1082.553955078125 311.8347473144531 1083.529174804688 C 310.8609313964844 1084.504516601562 310.3258056640625 1085.800659179688 310.3279113769531 1087.17919921875 L 310.3599243164062 1109.598876953125 C 310.3610534667969 1110.300170898438 310.9594421386719 1110.615600585938 311.3839721679688 1110.615600585938 C 311.5937194824219 1110.615600585938 311.7930297851562 1110.546630859375 311.9763488769531 1110.410522460938 L 315.1998596191406 1108.018920898438 C 316.3845520019531 1107.139404296875 317.8495788574219 1106.655151367188 319.3250122070312 1106.655151367188 L 338.3940124511719 1106.655151367188 C 341.2365417480469 1106.655151367188 343.549072265625 1104.343017578125 343.549072265625 1101.5009765625 L 343.549072265625 1087.171020507812 C 343.549072265625 1084.328979492188 341.2365417480469 1082.016845703125 338.3940124511719 1082.016845703125 L 315.4819946289062 1082.016845703125 M 315.4819946289062 1080.073974609375 L 338.3940124511719 1080.073974609375 C 342.3139953613281 1080.073974609375 345.4920043945312 1083.2509765625 345.4920043945312 1087.171020507812 L 345.4920043945312 1101.5009765625 C 345.4920043945312 1105.421020507812 342.3139953613281 1108.598022460938 338.3940124511719 1108.598022460938 L 319.3250122070312 1108.598022460938 C 318.2560119628906 1108.598022460938 317.2160034179688 1108.942016601562 316.3580017089844 1109.578979492188 L 313.1340026855469 1111.970947265625 C 311.1850891113281 1113.416870117188 308.4209899902344 1112.029174804688 308.4169921875 1109.60205078125 L 308.385009765625 1087.182006835938 C 308.3789978027344 1083.258056640625 311.5580139160156 1080.073974609375 315.4819946289062 1080.073974609375 Z" stroke="none" fill="#fff"/>
    </g>
    <path id="Прямоугольник_81" data-name="Прямоугольник 81" d="M0,0H24.195a6.653,6.653,0,0,1,6.653,6.653V20.081a6.653,6.653,0,0,1-6.653,6.653H0a0,0,0,0,1,0,0V0A0,0,0,0,1,0,0Z" transform="translate(307.544 1086.905)" fill="#4385f5"/>
    <g id="Контур_148" data-name="Контур 148" fill="none" stroke-miterlimit="10">
      <path d="M332.144,1085.625H309.232a7.1,7.1,0,0,0-7.1,7.108l.032,22.421a2.956,2.956,0,0,0,4.717,2.369l3.224-2.392a4.979,4.979,0,0,1,2.967-.981h19.069a7.1,7.1,0,0,0,7.1-7.1v-14.329A7.1,7.1,0,0,0,332.144,1085.625Z" stroke="none"/>
      <path d="M 309.2319946289062 1087.56787109375 C 307.853759765625 1087.56787109375 306.5584411621094 1088.10498046875 305.584716796875 1089.080200195312 C 304.6109313964844 1090.055541992188 304.0758056640625 1091.351684570312 304.0779113769531 1092.730224609375 L 304.1099243164062 1115.15087890625 C 304.1110534667969 1115.85205078125 304.7097473144531 1116.167358398438 305.1344909667969 1116.167358398438 C 305.3440551757812 1116.167358398438 305.5431823730469 1116.098510742188 305.7263488769531 1115.962646484375 L 308.9498901367188 1113.570922851562 C 310.1345520019531 1112.69140625 311.5995788574219 1112.207153320312 313.0750122070312 1112.207153320312 L 332.1440124511719 1112.207153320312 C 334.9865417480469 1112.207153320312 337.299072265625 1109.89453125 337.299072265625 1107.052001953125 L 337.299072265625 1092.723022460938 C 337.299072265625 1089.880493164062 334.9865417480469 1087.56787109375 332.1440124511719 1087.56787109375 L 309.2319946289062 1087.56787109375 M 309.2319946289062 1085.625 L 332.1440124511719 1085.625 C 336.0639953613281 1085.625 339.2420043945312 1088.802978515625 339.2420043945312 1092.723022460938 L 339.2420043945312 1107.052001953125 C 339.2420043945312 1110.972045898438 336.0639953613281 1114.150024414062 332.1440124511719 1114.150024414062 L 313.0750122070312 1114.150024414062 C 312.0069885253906 1114.150024414062 310.9660034179688 1114.494018554688 310.1080017089844 1115.130981445312 L 306.8840026855469 1117.52294921875 C 304.93505859375 1118.969116210938 302.1709899902344 1117.579833984375 302.1669921875 1115.154052734375 L 302.135009765625 1092.733032226562 C 302.1289978027344 1088.808959960938 305.3080139160156 1085.625 309.2319946289062 1085.625 Z" stroke="none" fill="#fff"/>
    </g>
    <g id="Сгруппировать_158" data-name="Сгруппировать 158">
      <line id="Линия_28" data-name="Линия 28" x2="21.13" transform="translate(309.988 1093.476)" fill="none" stroke="#fff" stroke-linecap="round" stroke-miterlimit="10" stroke-width="1.943"/>
      <line id="Линия_29" data-name="Линия 29" x2="21.13" transform="translate(309.988 1099.68)" fill="none" stroke="#fff" stroke-linecap="round" stroke-miterlimit="10" stroke-width="1.943"/>
      <line id="Линия_30" data-name="Линия 30" x2="12.297" transform="translate(309.988 1105.883)" fill="none" stroke="#fff" stroke-linecap="round" stroke-miterlimit="10" stroke-width="1.943"/>
    </g>
  </g>
</svg>
