<svg width="166" height="48" viewBox="0 0 166 48" fill="none" xmlns="http://www.w3.org/2000/svg">
<path d="M47.806 23.903C47.806 10.7017 37.1043 0 23.903 0C10.7017 0 0 10.7017 0 23.903C0 37.1043 10.7017 47.806 23.903 47.806C37.1043 47.806 47.806 37.1043 47.806 23.903Z" fill="#E84639"/>
<path d="M38.583 26.915C38.5825 27.3318 38.4169 27.7314 38.1225 28.0264C37.8281 28.3213 37.4288 28.4877 37.012 28.489H30.523C29.9579 28.4895 29.4161 28.7142 29.0164 29.1137C28.6167 29.5132 28.3918 30.0549 28.391 30.62V37.11C28.3905 37.5271 28.2246 37.927 27.9298 38.2221C27.6349 38.5171 27.2351 38.6832 26.818 38.684H21.018C20.6007 38.6835 20.2007 38.5175 19.9056 38.2224C19.6105 37.9273 19.4445 37.5273 19.444 37.11V29.965H24.676C26.1045 29.9624 27.4738 29.3938 28.484 28.3838C29.4943 27.3737 30.0631 26.0045 30.066 24.576V19.544H37.012C37.4292 19.5443 37.8293 19.7101 38.1244 20.005C38.4195 20.2999 38.5855 20.6998 38.586 21.117V26.917L38.583 26.915ZM37.012 17.842H25.562C23.4885 17.8444 21.5006 18.6692 20.0344 20.1354C18.5682 21.6016 17.7434 23.5895 17.741 25.663V27.313H19.441V25.663C19.4429 24.0407 20.0881 22.4854 21.2353 21.3383C22.3824 20.1911 23.9377 19.5459 25.56 19.544H28.36V24.576C28.3587 25.5534 27.9698 26.4903 27.2786 27.1813C26.5874 27.8723 25.6504 28.261 24.673 28.262H13.693C12.5184 28.2444 11.3979 27.7655 10.5734 26.9287C9.74901 26.0918 9.28689 24.9642 9.28689 23.7895C9.28689 22.6148 9.74901 21.4872 10.5734 20.6504C11.3979 19.8135 12.5184 19.3346 13.693 19.317H17.284C17.849 19.3165 18.3907 19.0918 18.7903 18.6923C19.1898 18.2927 19.4145 17.751 19.415 17.186V13.595C19.4326 12.4204 19.9115 11.2999 20.7484 10.4754C21.5852 9.65102 22.7128 9.18889 23.8875 9.18889C25.0622 9.18889 26.1898 9.65102 27.0267 10.4754C27.8635 11.2999 28.3424 12.4204 28.36 13.595V16.979H30.06V13.595C30.06 12.7841 29.9003 11.9811 29.59 11.2319C29.2796 10.4828 28.8248 9.80203 28.2514 9.22863C27.678 8.65522 26.9973 8.20038 26.2481 7.89006C25.4989 7.57973 24.6959 7.42001 23.885 7.42001C23.0741 7.42001 22.2711 7.57973 21.5219 7.89006C20.7728 8.20038 20.092 8.65522 19.5186 9.22863C18.9452 9.80203 18.4904 10.4828 18.1801 11.2319C17.8697 11.9811 17.71 12.7841 17.71 13.595V17.186C17.71 17.2998 17.6648 17.4089 17.5844 17.4894C17.5039 17.5698 17.3948 17.615 17.281 17.615H13.69C12.8791 17.615 12.0761 17.7747 11.3269 18.0851C10.5778 18.3954 9.89703 18.8502 9.32362 19.4236C8.75022 19.997 8.29538 20.6778 7.98505 21.4269C7.67473 22.1761 7.51501 22.9791 7.51501 23.79C7.51501 24.6009 7.67473 25.4039 7.98505 26.1531C8.29538 26.9023 8.75022 27.583 9.32362 28.1564C9.89703 28.7298 10.5778 29.1846 11.3269 29.495C12.0761 29.8053 12.8791 29.965 13.69 29.965H17.736V37.11C17.7371 37.9785 18.0826 38.8112 18.6967 39.4253C19.3108 40.0395 20.1435 40.385 21.012 40.386H26.812C27.6805 40.385 28.5132 40.0395 29.1273 39.4253C29.7415 38.8112 30.087 37.9785 30.088 37.11V30.62C30.0883 30.5063 30.1336 30.3973 30.214 30.317C30.2943 30.2366 30.4033 30.1913 30.517 30.191H37.012C37.8805 30.19 38.7132 29.8445 39.3273 29.2303C39.9415 28.6162 40.287 27.7835 40.288 26.915V21.115C40.287 20.2466 39.9414 19.414 39.3273 18.8001C38.7131 18.1861 37.8804 17.8408 37.012 17.84V17.842Z" fill="white"/>
<path d="M62.5402 17.0425H67.209L72.1399 29.0728H72.3498L77.2808 17.0425H81.9495V34.948H78.2775V23.2937H78.1288L73.4951 34.8606H70.9946L66.3609 23.25H66.2123V34.948H62.5402V17.0425ZM91.1186 35.2103C89.7372 35.2103 88.5482 34.9305 87.5515 34.371C86.5606 33.8056 85.7971 33.0071 85.2609 31.9754C84.7246 30.9379 84.4565 29.711 84.4565 28.2947C84.4565 26.9133 84.7246 25.7009 85.2609 24.6576C85.7971 23.6143 86.5519 22.8012 87.5253 22.2183C88.5045 21.6355 89.6527 21.344 90.97 21.344C91.8559 21.344 92.6807 21.4868 93.4442 21.7725C94.2136 22.0522 94.8839 22.4748 95.4551 23.0402C96.0321 23.6055 96.4809 24.3166 96.8015 25.1734C97.1221 26.0244 97.2823 27.0211 97.2823 28.1635V29.1864H85.9428V26.8783H93.7764C93.7764 26.3421 93.6599 25.867 93.4267 25.4532C93.1936 25.0394 92.8701 24.7159 92.4563 24.4827C92.0483 24.2438 91.5732 24.1243 91.0312 24.1243C90.4658 24.1243 89.9645 24.2554 89.5274 24.5177C89.0961 24.7742 88.758 25.121 88.5132 25.5581C88.2684 25.9894 88.1431 26.4703 88.1373 27.0007V29.1952C88.1373 29.8596 88.2597 30.4337 88.5045 30.9175C88.7551 31.4013 89.1077 31.7743 89.5624 32.0366C90.017 32.2989 90.5561 32.43 91.1798 32.43C91.5936 32.43 91.9725 32.3718 92.3164 32.2552C92.6603 32.1386 92.9546 31.9638 93.1994 31.7306C93.4442 31.4975 93.6307 31.2119 93.7589 30.8738L97.2037 31.1011C97.0288 31.9288 96.6703 32.6515 96.1283 33.2694C95.592 33.8814 94.8984 34.3593 94.0475 34.7032C93.2023 35.0413 92.226 35.2103 91.1186 35.2103ZM104.661 35.1666C103.641 35.1666 102.718 34.9043 101.89 34.3797C101.068 33.8493 100.415 33.0712 99.9314 32.0454C99.4535 31.0137 99.2145 29.7489 99.2145 28.2509C99.2145 26.7122 99.4622 25.4328 99.9577 24.4128C100.453 23.387 101.112 22.6205 101.934 22.1134C102.761 21.6005 103.668 21.344 104.653 21.344C105.404 21.344 106.031 21.4723 106.532 21.7287C107.039 21.9794 107.447 22.2941 107.756 22.673C108.071 23.046 108.31 23.4132 108.473 23.7746H108.587V17.0425H112.303V34.948H108.631V32.7972H108.473C108.298 33.1703 108.051 33.5404 107.73 33.9076C107.415 34.269 107.004 34.5691 106.497 34.8081C105.996 35.0471 105.384 35.1666 104.661 35.1666ZM105.842 32.2027C106.442 32.2027 106.949 32.0395 107.363 31.7131C107.783 31.3809 108.103 30.9175 108.325 30.323C108.552 29.7285 108.666 29.032 108.666 28.2335C108.666 27.4349 108.555 26.7413 108.333 26.1526C108.112 25.564 107.791 25.1093 107.372 24.7888C106.952 24.4682 106.442 24.3079 105.842 24.3079C105.23 24.3079 104.714 24.474 104.294 24.8062C103.874 25.1385 103.557 25.5989 103.341 26.1876C103.126 26.7763 103.018 27.4582 103.018 28.2335C103.018 29.0145 103.126 29.7052 103.341 30.3055C103.563 30.9 103.88 31.3663 104.294 31.7044C104.714 32.0366 105.23 32.2027 105.842 32.2027ZM115.435 34.948V17.0425H122.499C123.857 17.0425 125.014 17.3019 125.97 17.8207C126.926 18.3336 127.654 19.0476 128.156 19.9627C128.663 20.8719 128.916 21.9211 128.916 23.1101C128.916 24.2991 128.66 25.3483 128.147 26.2576C127.634 27.1668 126.891 27.875 125.918 28.3821C124.95 28.8892 123.778 29.1427 122.403 29.1427H117.9V26.1089H121.791C122.519 26.1089 123.12 25.9836 123.592 25.733C124.07 25.4765 124.425 25.1239 124.659 24.6751C124.898 24.2205 125.017 23.6988 125.017 23.1101C125.017 22.5156 124.898 21.9969 124.659 21.5539C124.425 21.1051 124.07 20.7583 123.592 20.5135C123.114 20.2628 122.508 20.1375 121.773 20.1375H119.22V34.948H115.435ZM135.03 17.0425V34.948H131.305V17.0425H135.03ZM146.625 29.2301V21.5189H150.35V34.948H146.774V32.5087H146.634C146.331 33.2956 145.827 33.928 145.121 34.4059C144.422 34.8839 143.568 35.1229 142.56 35.1229C141.662 35.1229 140.872 34.9189 140.19 34.5109C139.508 34.1029 138.975 33.5229 138.59 32.771C138.211 32.0191 138.019 31.1186 138.013 30.0695V21.5189H141.738V29.405C141.744 30.1977 141.956 30.8243 142.376 31.2847C142.796 31.7452 143.358 31.9754 144.063 31.9754C144.512 31.9754 144.932 31.8734 145.322 31.6694C145.713 31.4596 146.028 31.1507 146.267 30.7427C146.511 30.3347 146.631 29.8305 146.625 29.2301ZM164.502 25.3483L161.092 25.5581C161.034 25.2667 160.909 25.0044 160.716 24.7713C160.524 24.5323 160.271 24.3429 159.956 24.203C159.647 24.0573 159.277 23.9844 158.845 23.9844C158.268 23.9844 157.782 24.1068 157.385 24.3516C156.989 24.5906 156.791 24.9112 156.791 25.3133C156.791 25.6339 156.919 25.9049 157.176 26.1264C157.432 26.3479 157.872 26.5257 158.496 26.6597L160.926 27.1493C162.232 27.4174 163.205 27.8488 163.846 28.4433C164.488 29.0378 164.808 29.8188 164.808 30.7864C164.808 31.6665 164.549 32.4388 164.03 33.1032C163.517 33.7677 162.812 34.2865 161.914 34.6595C161.022 35.0267 159.994 35.2103 158.828 35.2103C157.05 35.2103 155.634 34.8402 154.579 34.0999C153.53 33.3539 152.915 32.3397 152.734 31.0574L156.397 30.8651C156.508 31.4071 156.776 31.821 157.202 32.1066C157.627 32.3863 158.172 32.5262 158.837 32.5262C159.49 32.5262 160.014 32.4009 160.41 32.1503C160.813 31.8938 161.017 31.5645 161.022 31.1623C161.017 30.8243 160.874 30.5474 160.594 30.3317C160.314 30.1103 159.883 29.9412 159.3 29.8247L156.974 29.3613C155.663 29.099 154.687 28.6444 154.046 27.9974C153.41 27.3504 153.093 26.5257 153.093 25.5232C153.093 24.6605 153.326 23.9174 153.792 23.2937C154.264 22.6701 154.926 22.1892 155.777 21.8511C156.634 21.5131 157.636 21.344 158.784 21.344C160.48 21.344 161.815 21.7025 162.789 22.4194C163.768 23.1363 164.339 24.1126 164.502 25.3483Z" fill="#090909"/>
</svg>
