<svg width="228" height="49" viewBox="0 0 228 49" fill="none" xmlns="http://www.w3.org/2000/svg">
<g clip-path="url(#clip0_65_9)">
<path d="M44.684 28.0435C44.6835 28.6437 44.4448 29.2191 44.0203 29.6436C43.5958 30.068 43.0203 30.3066 42.42 30.3071H33.084C32.2713 30.3082 31.4921 30.6318 30.9175 31.2065C30.343 31.7813 30.0198 32.5603 30.019 33.373V42.708C30.0182 43.3082 29.7794 43.8837 29.355 44.3081C28.9306 44.7325 28.3552 44.9714 27.755 44.9722H19.412C18.8118 44.9714 18.2364 44.7325 17.812 44.3081C17.3876 43.8837 17.1488 43.3082 17.148 42.708V32.4302H24.674C26.7294 32.4281 28.7 31.6105 30.1535 30.1572C31.607 28.7039 32.4246 26.7336 32.427 24.6782V17.4404H42.417C43.0171 17.441 43.5925 17.6793 44.017 18.1035C44.4414 18.5278 44.6802 19.103 44.681 19.7031V28.0435H44.684ZM42.42 14.9912H25.953C22.97 14.9944 20.1101 16.1808 18.0009 18.29C15.8916 20.3993 14.7052 23.2592 14.702 26.2422V28.6152H17.151V26.2422C17.1542 23.9093 18.0823 21.6726 19.732 20.0229C21.3816 18.3733 23.6181 17.4456 25.951 17.4424H29.979V24.6802C29.9764 26.085 29.4171 27.4314 28.4238 28.4248C27.4304 29.4182 26.0838 29.9773 24.679 29.98H8.88201C8.0304 29.9906 7.18516 29.8322 6.3953 29.5137C5.60544 29.1951 4.88669 28.723 4.28072 28.1245C3.67476 27.5261 3.19364 26.8132 2.86526 26.0273C2.53689 25.2415 2.3678 24.3985 2.3678 23.5469C2.3678 22.6952 2.53689 21.8517 2.86526 21.0659C3.19364 20.2801 3.67476 19.5672 4.28072 18.9688C4.88669 18.3703 5.60544 17.8981 6.3953 17.5796C7.18516 17.261 8.0304 17.1027 8.88201 17.1133H14.048C14.8607 17.1122 15.6399 16.7887 16.2145 16.2139C16.7891 15.6391 17.1122 14.8601 17.113 14.0474V8.88135C17.113 7.17494 17.7909 5.53815 18.9975 4.33154C20.2041 3.12493 21.8406 2.44727 23.547 2.44727C25.2534 2.44727 26.8899 3.12493 28.0965 4.33154C29.3031 5.53815 29.981 7.17494 29.981 8.88135V13.749H32.43V8.88135C32.43 6.52556 31.4942 4.26638 29.8284 2.60059C28.1626 0.934794 25.9033 -0.00146484 23.5475 -0.00146484C21.1917 -0.00146484 18.9324 0.934794 17.2666 2.60059C15.6008 4.26638 14.665 6.52556 14.665 8.88135V14.0474C14.6647 14.2109 14.5997 14.3677 14.484 14.4834C14.3683 14.5991 14.2116 14.6638 14.048 14.6641H8.88201C6.54255 14.6889 4.30734 15.6357 2.6618 17.2988C1.01625 18.9619 0.0932617 21.2073 0.0932617 23.5469C0.0932617 25.8865 1.01625 28.1313 2.6618 29.7944C4.30734 31.4575 6.54255 32.4044 8.88201 32.4292H14.702V42.707C14.7033 43.9566 15.2003 45.155 16.0839 46.0386C16.9674 46.9221 18.1654 47.4191 19.415 47.4204H27.755C29.0044 47.4188 30.2021 46.9216 31.0855 46.0381C31.9689 45.1545 32.4657 43.9564 32.467 42.707V33.3721C32.4673 33.2085 32.5324 33.0517 32.648 32.936C32.7637 32.8204 32.9205 32.7556 33.084 32.7554H42.42C43.6694 32.7538 44.8671 32.2566 45.7505 31.373C46.6339 30.4895 47.1307 29.2914 47.132 28.042V19.7021C47.1307 18.4529 46.6338 17.255 45.7504 16.3716C44.8671 15.4882 43.6693 14.9925 42.42 14.9912Z" fill="#F9F8F4"/>
<path d="M79.1478 13.3157H85.8641L92.9578 30.6222H93.2596L100.353 13.3157H107.07V39.0742H101.787V22.3085H101.573L94.9073 38.9484H91.3101L84.6441 22.2456H84.4303V39.0742H79.1478V13.3157ZM120.26 39.4515C118.273 39.4515 116.562 39.0491 115.129 38.2441C113.703 37.4308 112.605 36.282 111.833 34.7979C111.062 33.3054 110.676 31.5403 110.676 29.5028C110.676 27.5156 111.062 25.7715 111.833 24.2706C112.605 22.7697 113.691 21.6 115.091 20.7615C116.5 19.923 118.151 19.5038 120.046 19.5038C121.321 19.5038 122.507 19.7092 123.606 20.1201C124.713 20.5225 125.677 21.1304 126.499 21.9438C127.329 22.7571 127.974 23.7801 128.436 25.0127C128.897 26.2369 129.127 27.6707 129.127 29.3141V30.7857H112.814V27.4653H124.084C124.084 26.6939 123.916 26.0105 123.581 25.4151C123.245 24.8198 122.78 24.3545 122.185 24.0191C121.598 23.6753 120.914 23.5034 120.134 23.5034C119.321 23.5034 118.6 23.692 117.971 24.0694C117.351 24.4383 116.864 24.9372 116.512 25.5661C116.16 26.1866 115.98 26.8783 115.971 27.6413V30.7983C115.971 31.7542 116.147 32.5801 116.5 33.276C116.86 33.972 117.367 34.5086 118.021 34.8859C118.675 35.2633 119.451 35.4519 120.348 35.4519C120.944 35.4519 121.489 35.3681 121.983 35.2004C122.478 35.0327 122.901 34.7811 123.254 34.4457C123.606 34.1103 123.874 33.6995 124.059 33.2131L129.014 33.5402C128.763 34.7308 128.247 35.7706 127.467 36.6594C126.696 37.5398 125.698 38.2273 124.474 38.7221C123.258 39.2084 121.853 39.4515 120.26 39.4515ZM139.743 39.3887C138.275 39.3887 136.946 39.0113 135.756 38.2567C134.573 37.4937 133.634 36.3743 132.938 34.8985C132.251 33.4144 131.907 31.5948 131.907 29.4399C131.907 27.2263 132.263 25.3858 132.976 23.9184C133.689 22.4427 134.636 21.3401 135.818 20.6106C137.009 19.8727 138.313 19.5038 139.73 19.5038C140.812 19.5038 141.713 19.6882 142.434 20.0572C143.164 20.4177 143.751 20.8705 144.195 21.4155C144.648 21.9522 144.992 22.4804 145.226 23.0003H145.39V13.3157H150.735V39.0742H145.453V35.9802H145.226C144.975 36.5168 144.618 37.0493 144.157 37.5775C143.705 38.0974 143.113 38.5292 142.384 38.873C141.663 39.2168 140.782 39.3887 139.743 39.3887ZM141.441 35.1249C142.304 35.1249 143.034 34.8901 143.629 34.4206C144.233 33.9426 144.694 33.276 145.013 32.4208C145.34 31.5655 145.503 30.5635 145.503 29.4148C145.503 28.266 145.344 27.2682 145.025 26.4213C144.707 25.5745 144.245 24.9204 143.642 24.4593C143.038 23.9981 142.304 23.7675 141.441 23.7675C140.56 23.7675 139.818 24.0065 139.214 24.4844C138.611 24.9624 138.154 25.6248 137.843 26.4716C137.533 27.3185 137.378 28.2996 137.378 29.4148C137.378 30.5383 137.533 31.532 137.843 32.3956C138.162 33.2509 138.619 33.9217 139.214 34.408C139.818 34.8859 140.56 35.1249 141.441 35.1249ZM155.241 39.0742V13.3157H165.404C167.357 13.3157 169.022 13.6888 170.397 14.4351C171.772 15.1729 172.82 16.2001 173.541 17.5165C174.271 18.8246 174.636 20.3339 174.636 22.0444C174.636 23.7549 174.267 25.2642 173.529 26.5723C172.791 27.8803 171.722 28.8991 170.321 29.6286C168.93 30.3581 167.244 30.7228 165.265 30.7228H158.788V26.3585H164.385C165.433 26.3585 166.297 26.1782 166.976 25.8176C167.663 25.4487 168.175 24.9414 168.51 24.2958C168.854 23.6417 169.026 22.8913 169.026 22.0444C169.026 21.1891 168.854 20.4429 168.51 19.8056C168.175 19.16 167.663 18.6611 166.976 18.3089C166.288 17.9484 165.416 17.7681 164.36 17.7681H160.687V39.0742H155.241ZM183.43 13.3157V39.0742H178.072V13.3157H183.43ZM200.111 30.8486V19.7553H205.469V39.0742H200.325V35.5651H200.124C199.688 36.6971 198.962 37.6069 197.948 38.2944C196.942 38.982 195.713 39.3258 194.263 39.3258C192.971 39.3258 191.835 39.0323 190.854 38.4453C189.873 37.8584 189.106 37.0241 188.552 35.9424C188.007 34.8608 187.731 33.5653 187.722 32.056V19.7553H193.08V31.1001C193.089 32.2405 193.395 33.1419 193.998 33.8043C194.602 34.4667 195.411 34.7979 196.426 34.7979C197.072 34.7979 197.675 34.6512 198.237 34.3577C198.799 34.0558 199.252 33.6114 199.595 33.0245C199.948 32.4375 200.119 31.7122 200.111 30.8486ZM225.829 25.2642L220.924 25.5661C220.84 25.1468 220.659 24.7695 220.383 24.4341C220.106 24.0903 219.741 23.8178 219.288 23.6166C218.844 23.407 218.312 23.3021 217.691 23.3021C216.861 23.3021 216.161 23.4782 215.591 23.8304C215.021 24.1742 214.735 24.6353 214.735 25.2139C214.735 25.6751 214.92 26.065 215.289 26.3836C215.658 26.7022 216.291 26.958 217.188 27.1508L220.685 27.8552C222.563 28.2409 223.963 28.8614 224.885 29.7166C225.808 30.5719 226.269 31.6955 226.269 33.0874C226.269 34.3535 225.896 35.4645 225.15 36.4204C224.412 37.3763 223.397 38.1225 222.106 38.6592C220.823 39.1874 219.343 39.4515 217.666 39.4515C215.109 39.4515 213.071 38.9191 211.553 37.8542C210.044 36.7809 209.159 35.322 208.9 33.4773L214.169 33.2006C214.329 33.9804 214.714 34.5757 215.327 34.9866C215.939 35.389 216.723 35.5903 217.679 35.5903C218.618 35.5903 219.372 35.41 219.943 35.0494C220.521 34.6805 220.815 34.2068 220.823 33.6282C220.815 33.1419 220.609 32.7436 220.207 32.4333C219.804 32.1147 219.184 31.8716 218.345 31.7039L215 31.0373C213.113 30.6599 211.708 30.0059 210.786 29.0752C209.872 28.1444 209.415 26.958 209.415 25.5158C209.415 24.2748 209.751 23.2057 210.421 22.3085C211.101 21.4113 212.052 20.7196 213.276 20.2333C214.509 19.7469 215.951 19.5038 217.603 19.5038C220.043 19.5038 221.963 20.0194 223.364 21.0508C224.772 22.0821 225.594 23.4866 225.829 25.2642Z" fill="#F9F8F4"/>
</g>
<defs>
<clipPath id="clip0_65_9">
<rect width="228" height="49" fill="white"/>
</clipPath>
</defs>
</svg>
