<svg width="238" height="49" viewBox="0 0 238 49" fill="none" xmlns="http://www.w3.org/2000/svg">
<g clip-path="url(#clip0_337_22)">
<path d="M44.684 28.0435C44.6835 28.6437 44.4448 29.2191 44.0203 29.6436C43.5958 30.068 43.0203 30.3066 42.42 30.3071H33.084C32.2713 30.3082 31.4921 30.6318 30.9175 31.2065C30.343 31.7813 30.0198 32.5603 30.019 33.373V42.708C30.0182 43.3082 29.7794 43.8837 29.355 44.3081C28.9306 44.7325 28.3552 44.9714 27.755 44.9722H19.412C18.8118 44.9714 18.2364 44.7325 17.812 44.3081C17.3876 43.8837 17.1488 43.3082 17.148 42.708V32.4302H24.674C26.7294 32.4281 28.7 31.6105 30.1535 30.1572C31.607 28.7039 32.4246 26.7336 32.427 24.6782V17.4404H42.417C43.0171 17.441 43.5925 17.6793 44.017 18.1035C44.4414 18.5278 44.6802 19.103 44.681 19.7031V28.0435H44.684ZM42.42 14.9912H25.953C22.97 14.9944 20.1101 16.1808 18.0009 18.29C15.8916 20.3993 14.7052 23.2592 14.702 26.2422V28.6152H17.151V26.2422C17.1542 23.9093 18.0823 21.6726 19.732 20.0229C21.3816 18.3733 23.6181 17.4456 25.951 17.4424H29.979V24.6802C29.9764 26.085 29.4171 27.4314 28.4238 28.4248C27.4304 29.4182 26.0838 29.9773 24.679 29.98H8.88201C8.0304 29.9906 7.18516 29.8322 6.3953 29.5137C5.60544 29.1951 4.88669 28.723 4.28072 28.1245C3.67476 27.5261 3.19364 26.8132 2.86526 26.0273C2.53689 25.2415 2.3678 24.3985 2.3678 23.5469C2.3678 22.6952 2.53689 21.8517 2.86526 21.0659C3.19364 20.2801 3.67476 19.5672 4.28072 18.9688C4.88669 18.3703 5.60544 17.8981 6.3953 17.5796C7.18516 17.261 8.0304 17.1027 8.88201 17.1133H14.048C14.8607 17.1122 15.6399 16.7887 16.2145 16.2139C16.7891 15.6391 17.1122 14.8601 17.113 14.0474V8.88135C17.113 7.17494 17.7909 5.53815 18.9975 4.33154C20.2041 3.12493 21.8406 2.44727 23.547 2.44727C25.2534 2.44727 26.8899 3.12493 28.0965 4.33154C29.3031 5.53815 29.981 7.17494 29.981 8.88135V13.749H32.43V8.88135C32.43 6.52556 31.4942 4.26638 29.8284 2.60059C28.1626 0.934794 25.9033 -0.00146484 23.5475 -0.00146484C21.1917 -0.00146484 18.9324 0.934794 17.2666 2.60059C15.6008 4.26638 14.665 6.52556 14.665 8.88135V14.0474C14.6647 14.2109 14.5997 14.3677 14.484 14.4834C14.3683 14.5991 14.2116 14.6638 14.048 14.6641H8.88201C6.54255 14.6889 4.30734 15.6357 2.6618 17.2988C1.01625 18.9619 0.0932617 21.2073 0.0932617 23.5469C0.0932617 25.8865 1.01625 28.1313 2.6618 29.7944C4.30734 31.4575 6.54255 32.4044 8.88201 32.4292H14.702V42.707C14.7033 43.9566 15.2003 45.155 16.0839 46.0386C16.9674 46.9221 18.1654 47.4191 19.415 47.4204H27.755C29.0044 47.4188 30.2021 46.9216 31.0855 46.0381C31.9689 45.1545 32.4657 43.9564 32.467 42.707V33.3721C32.4673 33.2085 32.5324 33.0517 32.648 32.936C32.7637 32.8204 32.9205 32.7556 33.084 32.7554H42.42C43.6694 32.7538 44.8671 32.2566 45.7505 31.373C46.6339 30.4895 47.1307 29.2914 47.132 28.042V19.7021C47.1307 18.4529 46.6338 17.255 45.7504 16.3716C44.8671 15.4882 43.6693 14.9925 42.42 14.9912Z" fill="#F9F8F4"/>
<path d="M79.8491 39.0743V14.2817H84.5951L95.1497 31.7782H92.635L103.012 14.2817H107.723L107.794 39.0743H102.41L102.375 22.5341H103.366L95.0788 36.4534H92.4933L84.0284 22.5341H85.2326V39.0743H79.8491ZM122.743 39.3577C120.571 39.3577 118.658 38.9326 117.005 38.0826C115.376 37.2326 114.113 36.0756 113.215 34.6117C112.318 33.1241 111.87 31.4358 111.87 29.5469C111.87 27.6343 112.306 25.946 113.18 24.4821C114.077 22.9945 115.293 21.8376 116.828 21.0111C118.363 20.1611 120.098 19.7361 122.034 19.7361C123.9 19.7361 125.576 20.1375 127.064 20.9403C128.575 21.7195 129.767 22.8529 130.641 24.3404C131.515 25.8044 131.952 27.5635 131.952 29.6177C131.952 29.8302 131.94 30.0781 131.916 30.3615C131.892 30.6212 131.869 30.8691 131.845 31.1053H116.368V27.8822H128.941L126.816 28.8385C126.816 27.8468 126.615 26.985 126.214 26.253C125.812 25.521 125.258 24.9543 124.549 24.5529C123.841 24.1279 123.014 23.9154 122.07 23.9154C121.125 23.9154 120.287 24.1279 119.555 24.5529C118.847 24.9543 118.292 25.5328 117.891 26.2884C117.489 27.0204 117.288 27.894 117.288 28.9094V29.7594C117.288 30.7983 117.513 31.7192 117.961 32.522C118.434 33.3012 119.083 33.9033 119.909 34.3283C120.759 34.7297 121.751 34.9304 122.885 34.9304C123.9 34.9304 124.785 34.7769 125.541 34.47C126.32 34.163 127.028 33.7026 127.666 33.0887L130.606 36.2763C129.732 37.268 128.634 38.0354 127.312 38.5785C125.989 39.0979 124.467 39.3577 122.743 39.3577ZM143.812 39.3577C142.017 39.3577 140.4 38.9563 138.959 38.1535C137.519 37.327 136.374 36.1818 135.524 34.7179C134.697 33.254 134.284 31.5303 134.284 29.5469C134.284 27.5399 134.697 25.8044 135.524 24.3404C136.374 22.8765 137.519 21.7431 138.959 20.9403C140.4 20.1375 142.017 19.7361 143.812 19.7361C145.417 19.7361 146.822 20.0903 148.026 20.7986C149.231 21.507 150.163 22.5813 150.824 24.0217C151.485 25.462 151.816 27.3037 151.816 29.5469C151.816 31.7664 151.497 33.6081 150.86 35.0721C150.222 36.5124 149.301 37.5868 148.097 38.2951C146.917 39.0035 145.488 39.3577 143.812 39.3577ZM144.768 34.8242C145.665 34.8242 146.48 34.6117 147.212 34.1866C147.944 33.7616 148.522 33.1595 148.947 32.3803C149.396 31.5775 149.62 30.633 149.62 29.5469C149.62 28.4371 149.396 27.4926 148.947 26.7134C148.522 25.9342 147.944 25.3321 147.212 24.9071C146.48 24.4821 145.665 24.2696 144.768 24.2696C143.847 24.2696 143.021 24.4821 142.289 24.9071C141.557 25.3321 140.966 25.9342 140.518 26.7134C140.093 27.4926 139.88 28.4371 139.88 29.5469C139.88 30.633 140.093 31.5775 140.518 32.3803C140.966 33.1595 141.557 33.7616 142.289 34.1866C143.021 34.6117 143.847 34.8242 144.768 34.8242ZM149.762 39.0743V35.1783L149.868 29.5115L149.514 23.88V12.7942H155.039V39.0743H149.762ZM160.542 39.0743V14.2817H171.274C173.494 14.2817 175.406 14.6477 177.012 15.3797C178.617 16.088 179.857 17.1152 180.731 18.461C181.604 19.8069 182.041 21.4125 182.041 23.2779C182.041 25.1196 181.604 26.7134 180.731 28.0593C179.857 29.4052 178.617 30.4441 177.012 31.1761C175.406 31.8845 173.494 32.2386 171.274 32.2386H163.73L166.28 29.6531V39.0743H160.542ZM166.28 30.2907L163.73 27.5635H170.955C172.726 27.5635 174.048 27.1857 174.922 26.4301C175.796 25.6745 176.233 24.6238 176.233 23.2779C176.233 21.9084 175.796 20.8459 174.922 20.0903C174.048 19.3347 172.726 18.9569 170.955 18.9569H163.73L166.28 16.2297V30.2907ZM186.094 39.0743V12.7942H191.619V39.0743H186.094ZM204.787 39.3577C203.205 39.3577 201.788 39.0507 200.537 38.4368C199.309 37.8229 198.352 36.8902 197.668 35.6388C196.983 34.3637 196.641 32.7463 196.641 30.7865V20.0194H202.166V29.9719C202.166 31.5539 202.496 32.7227 203.157 33.4783C203.842 34.2102 204.799 34.5762 206.026 34.5762C206.876 34.5762 207.632 34.3991 208.293 34.045C208.954 33.6672 209.474 33.1005 209.851 32.3449C210.229 31.5657 210.418 30.5976 210.418 29.4406V20.0194H215.943V39.0743H210.702V33.8325L211.658 35.3554C211.02 36.6777 210.076 37.6812 208.824 38.366C207.597 39.0271 206.251 39.3577 204.787 39.3577ZM227.473 39.3577C225.844 39.3577 224.273 39.1688 222.762 38.791C221.275 38.3896 220.094 37.8937 219.22 37.3034L221.062 33.3366C221.936 33.8797 222.963 34.3283 224.143 34.6825C225.348 35.0131 226.528 35.1783 227.685 35.1783C228.96 35.1783 229.858 35.0249 230.377 34.7179C230.92 34.4109 231.192 33.9859 231.192 33.4429C231.192 32.9942 230.979 32.6637 230.554 32.4512C230.153 32.215 229.61 32.0379 228.925 31.9199C228.24 31.8018 227.485 31.6838 226.658 31.5657C225.855 31.4476 225.041 31.2942 224.214 31.1053C223.388 30.8928 222.632 30.5858 221.948 30.1844C221.263 29.783 220.708 29.2399 220.283 28.5552C219.882 27.8704 219.681 26.985 219.681 25.8988C219.681 24.6946 220.023 23.6321 220.708 22.7112C221.416 21.7903 222.432 21.0702 223.754 20.5507C225.076 20.0076 226.658 19.7361 228.5 19.7361C229.799 19.7361 231.121 19.8778 232.467 20.1611C233.813 20.4445 234.934 20.8577 235.831 21.4007L233.99 25.3321C233.069 24.7891 232.136 24.4231 231.192 24.2342C230.271 24.0217 229.374 23.9154 228.5 23.9154C227.272 23.9154 226.375 24.0807 225.808 24.4113C225.241 24.7418 224.958 25.1669 224.958 25.6863C224.958 26.1586 225.159 26.5127 225.56 26.7489C225.985 26.985 226.54 27.1739 227.225 27.3155C227.91 27.4572 228.653 27.5871 229.456 27.7051C230.283 27.7996 231.109 27.9531 231.935 28.1656C232.762 28.3781 233.506 28.685 234.167 29.0864C234.852 29.4642 235.406 29.9955 235.831 30.6803C236.256 31.3414 236.469 32.215 236.469 33.3012C236.469 34.4818 236.115 35.5325 235.406 36.4534C234.698 37.3506 233.671 38.059 232.325 38.5785C231.003 39.0979 229.385 39.3577 227.473 39.3577Z" fill="#F9F8F4"/>
</g>
<defs>
<clipPath id="clip0_337_22">
<rect width="238" height="49" fill="white"/>
</clipPath>
</defs>
</svg>
