<svg width="173" height="48" viewBox="0 0 173 48" fill="none" xmlns="http://www.w3.org/2000/svg">
<path d="M47.806 23.903C47.806 10.7017 37.1043 0 23.903 0C10.7017 0 0 10.7017 0 23.903C0 37.1043 10.7017 47.806 23.903 47.806C37.1043 47.806 47.806 37.1043 47.806 23.903Z" fill="#E84639"/>
<path d="M38.583 26.915C38.5825 27.3318 38.4169 27.7313 38.1225 28.0263C37.8281 28.3213 37.4288 28.4877 37.012 28.489H30.523C29.9579 28.4895 29.4161 28.7142 29.0164 29.1137C28.6167 29.5132 28.3918 30.0549 28.391 30.62V37.11C28.3905 37.5271 28.2246 37.927 27.9298 38.222C27.6349 38.5171 27.2351 38.6832 26.818 38.684H21.018C20.6007 38.6834 20.2007 38.5175 19.9056 38.2224C19.6105 37.9273 19.4445 37.5273 19.444 37.11V29.965H24.676C26.1045 29.9623 27.4738 29.3938 28.484 28.3837C29.4943 27.3737 30.0631 26.0045 30.066 24.576V19.544H37.012C37.4292 19.5442 37.8293 19.71 38.1244 20.0049C38.4195 20.2998 38.5855 20.6998 38.586 21.117V26.917L38.583 26.915ZM37.012 17.842H25.562C23.4885 17.8444 21.5006 18.6691 20.0344 20.1353C18.5682 21.6015 17.7434 23.5895 17.741 25.663V27.313H19.441V25.663C19.4429 24.0407 20.0881 22.4854 21.2353 21.3382C22.3824 20.1911 23.9377 19.5458 25.56 19.544H28.36V24.576C28.3587 25.5533 27.9698 26.4903 27.2786 27.1813C26.5874 27.8723 25.6504 28.2609 24.673 28.262H13.693C12.5068 28.262 11.3692 27.7908 10.5305 26.952C9.69172 26.1133 9.22051 24.9757 9.22051 23.7895C9.22051 22.6033 9.69172 21.4657 10.5305 20.6269C11.3692 19.7882 12.5068 19.317 13.693 19.317H17.284C17.849 19.3165 18.3907 19.0918 18.7903 18.6922C19.1898 18.2927 19.4145 17.751 19.415 17.186V13.595C19.415 12.4088 19.8862 11.2712 20.725 10.4324C21.5637 9.59369 22.7013 9.12248 23.8875 9.12248C25.0737 9.12248 26.2113 9.59369 27.05 10.4324C27.8888 11.2712 28.36 12.4088 28.36 13.595V16.979H30.06V13.595C30.06 12.7841 29.9003 11.9811 29.59 11.2319C29.2796 10.4827 28.8248 9.802 28.2514 9.2286C27.678 8.65519 26.9973 8.20035 26.2481 7.89003C25.4989 7.5797 24.6959 7.41998 23.885 7.41998C23.0741 7.41998 22.2711 7.5797 21.5219 7.89003C20.7728 8.20035 20.092 8.65519 19.5186 9.2286C18.9452 9.802 18.4904 10.4827 18.1801 11.2319C17.8697 11.9811 17.71 12.7841 17.71 13.595V17.186C17.71 17.2998 17.6648 17.4089 17.5844 17.4893C17.5039 17.5698 17.3948 17.615 17.281 17.615H13.69C12.8791 17.615 12.0761 17.7747 11.3269 18.085C10.5778 18.3953 9.89703 18.8502 9.32362 19.4236C8.75022 19.997 8.29538 20.6777 7.98505 21.4269C7.67473 22.1761 7.51501 22.9791 7.51501 23.79C7.51501 24.6009 7.67473 25.4039 7.98505 26.1531C8.29538 26.9022 8.75022 27.583 9.32362 28.1564C9.89703 28.7298 10.5778 29.1846 11.3269 29.4949C12.0761 29.8053 12.8791 29.965 13.69 29.965H17.736V37.11C17.7371 37.9785 18.0826 38.8112 18.6967 39.4253C19.3108 40.0394 20.1435 40.3849 21.012 40.386H26.812C27.6805 40.3849 28.5132 40.0394 29.1273 39.4253C29.7415 38.8112 30.087 37.9785 30.088 37.11V30.62C30.0883 30.5063 30.1336 30.3973 30.214 30.3169C30.2943 30.2365 30.4033 30.1912 30.517 30.191H37.012C37.8805 30.1899 38.7132 29.8444 39.3273 29.2303C39.9415 28.6162 40.287 27.7835 40.288 26.915V21.115C40.287 20.2466 39.9414 19.414 39.3273 18.8C38.7131 18.186 37.8804 17.8408 37.012 17.84V17.842Z" fill="white"/>
<path d="M63.0276 34.947V17.7123H66.3268L73.6638 29.8751H71.9157L79.1297 17.7123H82.4043L82.4535 34.947H78.7111L78.6865 23.449H79.3759L73.6146 33.1251H71.8172L65.9328 23.449H66.7699V34.947H63.0276ZM92.8455 35.144C91.3354 35.144 90.0059 34.8485 88.8569 34.2576C87.7243 33.6667 86.8462 32.8624 86.2225 31.8448C85.5987 30.8107 85.2869 29.6371 85.2869 28.324C85.2869 26.9944 85.5905 25.8208 86.1978 24.8032C86.8216 23.7691 87.6669 22.9648 88.7338 22.3903C89.8007 21.7994 91.0071 21.504 92.3531 21.504C93.6498 21.504 94.8152 21.783 95.8493 22.3411C96.8998 22.8827 97.7287 23.6706 98.336 24.7047C98.9433 25.7224 99.247 26.9452 99.247 28.3732C99.247 28.5209 99.2388 28.6933 99.2223 28.8903C99.2059 29.0708 99.1895 29.2432 99.1731 29.4073H88.4137V27.1668H97.1542L95.6769 27.8316C95.6769 27.1422 95.5374 26.5431 95.2584 26.0342C94.9793 25.5254 94.5936 25.1314 94.1012 24.8524C93.6088 24.557 93.0343 24.4092 92.3777 24.4092C91.7211 24.4092 91.1385 24.557 90.6296 24.8524C90.1372 25.1314 89.7515 25.5336 89.4724 26.0588C89.1934 26.5677 89.0539 27.175 89.0539 27.8808V28.4717C89.0539 29.1939 89.2098 29.8341 89.5217 30.3921C89.85 30.9338 90.3013 31.3524 90.8758 31.6478C91.4667 31.9268 92.1561 32.0664 92.944 32.0664C93.6498 32.0664 94.2653 31.9597 94.7906 31.7463C95.3322 31.5329 95.8246 31.2128 96.2678 30.7861L98.3114 33.002C97.7041 33.6914 96.9408 34.2248 96.0216 34.6023C95.1024 34.9634 94.0437 35.144 92.8455 35.144ZM107.492 35.144C106.244 35.144 105.12 34.865 104.118 34.3069C103.117 33.7324 102.321 32.9363 101.73 31.9186C101.156 30.901 100.868 29.7027 100.868 28.324C100.868 26.9288 101.156 25.7224 101.73 24.7047C102.321 23.687 103.117 22.8991 104.118 22.3411C105.12 21.783 106.244 21.504 107.492 21.504C108.608 21.504 109.584 21.7502 110.421 22.2426C111.259 22.735 111.907 23.4818 112.366 24.4831C112.826 25.4843 113.056 26.7646 113.056 28.324C113.056 29.8669 112.834 31.1472 112.391 32.1648C111.948 33.1661 111.308 33.9129 110.471 34.4054C109.65 34.8978 108.657 35.144 107.492 35.144ZM108.156 31.9925C108.78 31.9925 109.346 31.8448 109.855 31.5493C110.364 31.2539 110.766 30.8353 111.062 30.2937C111.373 29.7356 111.529 29.079 111.529 28.324C111.529 27.5525 111.373 26.896 111.062 26.3543C110.766 25.8126 110.364 25.3941 109.855 25.0986C109.346 24.8032 108.78 24.6554 108.156 24.6554C107.516 24.6554 106.942 24.8032 106.433 25.0986C105.924 25.3941 105.514 25.8126 105.202 26.3543C104.906 26.896 104.759 27.5525 104.759 28.324C104.759 29.079 104.906 29.7356 105.202 30.2937C105.514 30.8353 105.924 31.2539 106.433 31.5493C106.942 31.8448 107.516 31.9925 108.156 31.9925ZM111.628 34.947V32.2387L111.702 28.2994L111.456 24.3846V16.6782H115.296V34.947H111.628ZM119.122 34.947V17.7123H126.582C128.125 17.7123 129.455 17.9667 130.571 18.4756C131.687 18.968 132.549 19.682 133.156 20.6176C133.763 21.5532 134.067 22.6693 134.067 23.9661C134.067 25.2463 133.763 26.3543 133.156 27.2899C132.549 28.2255 131.687 28.9477 130.571 29.4565C129.455 29.949 128.125 30.1952 126.582 30.1952H121.338L123.111 28.3978V34.947H119.122ZM123.111 28.841L121.338 26.9452H126.361C127.592 26.9452 128.511 26.6826 129.118 26.1573C129.726 25.6321 130.029 24.9017 130.029 23.9661C130.029 23.014 129.726 22.2754 129.118 21.7502C128.511 21.2249 127.592 20.9623 126.361 20.9623H121.338L123.111 19.0665V28.841ZM136.884 34.947V16.6782H140.725V34.947H136.884ZM149.879 35.144C148.779 35.144 147.794 34.9306 146.924 34.5038C146.071 34.0771 145.406 33.4287 144.93 32.5588C144.454 31.6724 144.216 30.5481 144.216 29.1857V21.7009H148.057V28.6194C148.057 29.7192 148.287 30.5317 148.746 31.0569C149.222 31.5657 149.887 31.8202 150.74 31.8202C151.331 31.8202 151.857 31.697 152.316 31.4508C152.776 31.1882 153.137 30.7943 153.4 30.269C153.662 29.7274 153.793 29.0544 153.793 28.2501V21.7009H157.634V34.947H153.99V31.3031L154.655 32.3618C154.212 33.281 153.555 33.9786 152.686 34.4546C151.832 34.9142 150.896 35.144 149.879 35.144ZM165.649 35.144C164.516 35.144 163.425 35.0127 162.374 34.7501C161.34 34.471 160.52 34.1263 159.912 33.716L161.193 30.9584C161.8 31.3359 162.514 31.6478 163.335 31.894C164.172 32.1238 164.992 32.2387 165.797 32.2387C166.683 32.2387 167.307 32.132 167.668 31.9186C168.045 31.7053 168.234 31.4098 168.234 31.0323C168.234 30.7204 168.087 30.4906 167.791 30.3429C167.512 30.1788 167.135 30.0556 166.658 29.9736C166.182 29.8915 165.657 29.8094 165.083 29.7274C164.525 29.6453 163.958 29.5386 163.384 29.4073C162.809 29.2596 162.284 29.0462 161.808 28.7671C161.332 28.4881 160.946 28.1106 160.651 27.6346C160.372 27.1586 160.232 26.5431 160.232 25.788C160.232 24.9509 160.47 24.2123 160.946 23.5721C161.439 22.932 162.145 22.4313 163.064 22.0702C163.983 21.6927 165.083 21.504 166.363 21.504C167.266 21.504 168.185 21.6024 169.121 21.7994C170.056 21.9964 170.836 22.2836 171.46 22.6611L170.179 25.3941C169.539 25.0166 168.891 24.7621 168.234 24.6308C167.594 24.4831 166.97 24.4092 166.363 24.4092C165.51 24.4092 164.886 24.5241 164.492 24.7539C164.098 24.9837 163.901 25.2792 163.901 25.6403C163.901 25.9686 164.04 26.2148 164.32 26.3789C164.615 26.5431 165.001 26.6744 165.477 26.7728C165.953 26.8713 166.47 26.9616 167.028 27.0437C167.602 27.1093 168.177 27.216 168.751 27.3638C169.326 27.5115 169.843 27.7249 170.302 28.0039C170.778 28.2665 171.164 28.6358 171.46 29.1118C171.755 29.5714 171.903 30.1788 171.903 30.9338C171.903 31.7545 171.657 32.4849 171.164 33.1251C170.672 33.7488 169.958 34.2412 169.022 34.6023C168.103 34.9634 166.979 35.144 165.649 35.144Z" fill="#090909"/>
</svg>
