<svg xmlns="http://www.w3.org/2000/svg" width="34.256" height="39.798" viewBox="0 0 34.256 39.798">
  <g id="Сгруппировать_83" data-name="Сгруппировать 83" transform="translate(-212.288 -2194.526)">
    <path id="Контур_93" data-name="Контур 93" d="M213.29,2234.324h24.038a1,1,0,1,0,0-2H213.29a1,1,0,1,0,0,2Z" fill="#b2b1b1" fill-rule="evenodd"/>
    <g id="Сгруппировать_82" data-name="Сгруппировать 82">
      <g id="Сгруппировать_81" data-name="Сгруппировать 81">
        <g id="Сгруппировать_80" data-name="Сгруппировать 80">
          <path id="Контур_94" data-name="Контур 94" d="M213.011,2221.268v4.924c0,.531-.118,1.243.24,1.689.41.51,1.092.41,1.673.41,1.7,0,3.4.062,5.1,0a5.244,5.244,0,0,0,3.638-1.724l15.2-15.2c2-2,4-3.98,5.985-5.985a4.937,4.937,0,0,0,1.641-4.068c-.222-2.093-2-3.453-3.4-4.837-1.879-1.862-4.607-2.33-6.705-.47-.454.4-.869.857-1.3,1.286l-7.244,7.244c-4.483,4.483-9.172,8.831-13.481,13.481a4.958,4.958,0,0,0-1.352,3.253c-.06,1.21,1.821,1.207,1.881,0,.09-1.826,2.2-3.321,3.4-4.518l6.937-6.936c4.044-4.044,8.028-8.16,12.137-12.137a2.826,2.826,0,0,1,4.067-.205c.981.9,2.616,2.15,3.063,3.444.722,2.09-1.5,3.658-2.79,4.946l-14.388,14.388c-1.726,1.726-3.419,3.494-5.182,5.183a4.1,4.1,0,0,1-3.22.977h-4.241c-.191,0-.676-.107-.431-.006l.657.657c.082.2-.044.081-.005-.1a3.5,3.5,0,0,0,0-.671v-5.02A.941.941,0,0,0,213.011,2221.268Z" fill="#b2b1b1"/>
        </g>
      </g>
      <line id="Линия_24" data-name="Линия 24" x2="7.27" y2="6.651" transform="translate(217.105 2217.175)" fill="none" stroke="#b2b1b1" stroke-miterlimit="10" stroke-width="0.627"/>
    </g>
    <rect id="Прямоугольник_53" data-name="Прямоугольник 53" width="34.255" height="34.255" transform="translate(212.288 2194.526)" fill="none"/>
  </g>
</svg>
