<svg xmlns="http://www.w3.org/2000/svg" width="40.785" height="34.255" viewBox="0 0 40.785 34.255">
  <g id="Сгруппировать_89" data-name="Сгруппировать 89" transform="translate(-397.884 -2200.069)">
    <g id="Сгруппировать_88" data-name="Сгруппировать 88">
      <g id="Сгруппировать_87" data-name="Сгруппировать 87">
        <g id="Сгруппировать_86" data-name="Сгруппировать 86">
          <g id="Сгруппировать_85" data-name="Сгруппировать 85">
            <path id="Контур_95" data-name="Контур 95" d="M414.975,2232.935a4.9,4.9,0,0,0,6.793,0c.6-.558,1.166-1.166,1.747-1.747l7.991-7.991c1.918-1.918,4.327-3.861,5.7-6.239a11.229,11.229,0,0,0-14.1-15.96c-2.2.926-3.752,2.571-5.4,4.22h1.33a22.581,22.581,0,0,0-3.822-3.41,11.24,11.24,0,0,0-17.176,9.73c.07,3.7,1.974,6.437,4.466,8.929l7.049,7.049,5.423,5.422a.941.941,0,0,0,1.33-1.33l-10.523-10.523a33.685,33.685,0,0,1-4.213-4.426,9.357,9.357,0,0,1,12.031-13.61,17.757,17.757,0,0,1,4.1,3.5.953.953,0,0,0,1.33,0,19.969,19.969,0,0,1,3.605-3.215,9.355,9.355,0,0,1,12.531,13.326,37.214,37.214,0,0,1-4.52,4.733l-7.088,7.088c-1.794,1.794-4.5,5.65-7.258,3.128C415.413,2230.79,414.079,2232.116,414.975,2232.935Z" fill="#b2b1b1"/>
          </g>
        </g>
      </g>
    </g>
    <rect id="Прямоугольник_55" data-name="Прямоугольник 55" width="34.255" height="34.255" transform="translate(397.884 2200.069)" fill="none"/>
  </g>
</svg>
