<svg xmlns="http://www.w3.org/2000/svg" width="34.255" height="34.322" viewBox="0 0 34.255 34.322">
  <g id="Сгруппировать_113" data-name="Сгруппировать 113" transform="translate(-212.279 -2388.799)">
    <rect id="Прямоугольник_66" data-name="Прямоугольник 66" width="34.255" height="34.255" transform="translate(212.279 2388.799)" fill="none"/>
    <g id="Сгруппировать_112" data-name="Сгруппировать 112">
      <g id="Сгруппировать_111" data-name="Сгруппировать 111">
        <path id="Контур_104" data-name="Контур 104" d="M214.17,2406a15.244,15.244,0,1,1,12.2,14.955A15.4,15.4,0,0,1,214.17,2406a.942.942,0,0,0-1.882,0,17.128,17.128,0,1,0,13.8-16.787,17.33,17.33,0,0,0-13.8,16.787A.942.942,0,0,0,214.17,2406Z" fill="#b2b1b1"/>
      </g>
    </g>
    <path id="Контур_105" data-name="Контур 105" d="M228.329,2404.93v-.384q0-3.54,0-7.08a1.084,1.084,0,0,1,1.392-1.124,1.1,1.1,0,0,1,.775,1.148q0,2.805,0,5.611c0,.94,0,1.88,0,2.82a1.092,1.092,0,0,1-1.169,1.172q-4.26.014-8.518.018a1.073,1.073,0,0,1-.338-2.1,1.768,1.768,0,0,1,.455-.044q3.512-.021,7.022-.035Z" fill="#b2b1b1"/>
  </g>
</svg>
