<svg xmlns="http://www.w3.org/2000/svg" xmlns:xlink="http://www.w3.org/1999/xlink" width="421.561" height="362.395" viewBox="0 0 421.561 362.395">
  <defs>
    <clipPath id="clip-path">
      <rect id="Прямоугольник_79" data-name="Прямоугольник 79" width="421.561" height="362.395" transform="translate(675.101 1599.962)" fill="none"/>
    </clipPath>
  </defs>
  <g id="Сгруппировать_155" data-name="Сгруппировать 155" transform="translate(-675.101 -1599.962)">
    <g id="Сгруппировать_154" data-name="Сгруппировать 154">
      <g id="Сгруппировать_153" data-name="Сгруппировать 153" clip-path="url(#clip-path)">
        <g id="Сгруппировать_152" data-name="Сгруппировать 152">
          <g id="Сгруппировать_150" data-name="Сгруппировать 150">
            <rect id="Прямоугольник_75" data-name="Прямоугольник 75" width="142.639" height="11.079" rx="5.54" transform="translate(896.29 1829.809)" fill="#a09d95"/>
            <g id="Сгруппировать_128" data-name="Сгруппировать 128">
              <path id="Контур_111" data-name="Контур 111" d="M852.112,1809.6V1762.97a4.348,4.348,0,0,0-4.348-4.347H798.053a4.347,4.347,0,0,0-4.348,4.347V1809.6a22.67,22.67,0,0,1-22.67,22.67h0a4.348,4.348,0,0,0-4.348,4.348h0a4.348,4.348,0,0,0,4.348,4.347H874.782a4.347,4.347,0,0,0,4.347-4.347h0a4.347,4.347,0,0,0-4.347-4.348h0A22.67,22.67,0,0,1,852.112,1809.6Z" fill="#a09d95"/>
              <rect id="Прямоугольник_76" data-name="Прямоугольник 76" width="228.044" height="175.869" rx="10.239" transform="translate(709.226 1613.34)" fill="#f9f8f4"/>
            </g>
            <path id="Контур_112" data-name="Контур 112" d="M1086.54,1961.832a4,4,0,0,1-4-4v-98.7a12.1,12.1,0,0,0-12.088-12.089H686.888a4,4,0,0,1,0-8h383.564a20.112,20.112,0,0,1,20.088,20.089v98.7A4,4,0,0,1,1086.54,1961.832Z" fill="#efdea8"/>
            <path id="Контур_113" data-name="Контур 113" d="M1043.35,1960.3" fill="none" stroke="#000" stroke-linecap="round" stroke-miterlimit="10" stroke-width="1.494"/>
            <g id="Сгруппировать_130" data-name="Сгруппировать 130">
              <circle id="Эллипс_15" data-name="Эллипс 15" cx="19.205" cy="19.205" r="19.205" transform="translate(741.321 1665.497)" fill="#e84639"/>
              <g id="Сгруппировать_129" data-name="Сгруппировать 129">
                <circle id="Эллипс_16" data-name="Эллипс 16" cx="4.98" cy="4.98" r="4.98" transform="translate(755.546 1673.413)" fill="#f9f8f4"/>
                <path id="Контур_114" data-name="Контур 114" d="M760.526,1685.5a9.4,9.4,0,0,0-9.4,9.4h18.8A9.4,9.4,0,0,0,760.526,1685.5Z" fill="#f9f8f4"/>
              </g>
              <path id="Контур_115" data-name="Контур 115" d="M891.646,1666.651h-86a1.128,1.128,0,0,1,0-2.255h86a1.128,1.128,0,0,1,0,2.255Z" fill="#c6c6c6"/>
              <path id="Контур_116" data-name="Контур 116" d="M891.646,1685.829h-86a1.127,1.127,0,1,1,0-2.254h86a1.127,1.127,0,1,1,0,2.254Z" fill="#c6c6c6"/>
              <path id="Контур_117" data-name="Контур 117" d="M891.646,1705.008h-86a1.128,1.128,0,0,1,0-2.255h86a1.128,1.128,0,0,1,0,2.255Z" fill="#c6c6c6"/>
              <path id="Контур_118" data-name="Контур 118" d="M858.884,1724.186H805.649a1.128,1.128,0,0,1,0-2.255h53.235a1.128,1.128,0,0,1,0,2.255Z" fill="#c6c6c6"/>
            </g>
            <g id="Сгруппировать_149" data-name="Сгруппировать 149">
              <g id="Сгруппировать_138" data-name="Сгруппировать 138">
                <g id="Сгруппировать_137" data-name="Сгруппировать 137">
                  <g id="Сгруппировать_131" data-name="Сгруппировать 131">
                    <path id="Контур_119" data-name="Контур 119" d="M853.623,1834.023l-4.479-18.58c-8.408-4.451,5.168.913,9.7-7.452l45.2-69.337,49.459,15s-49.145,58.4-67.33,75.795C879.613,1835.721,866.654,1844.955,853.623,1834.023Z" fill="#f9f8f4"/>
                    <path id="Контур_120" data-name="Контур 120" d="M866.431,1839.805a20.305,20.305,0,0,1-13.282-5.217l-.186-.156-4.458-18.494c-2.317-1.237-2.929-1.709-2.771-2.466.163-.777.968-.838,2.429-.948,2.691-.2,7.7-.58,10.03-4.884l45.531-69.852,51.058,15.486-.72.855c-.492.585-49.379,58.629-67.384,75.854C882.172,1834.293,874.775,1839.805,866.431,1839.805Zm-12.149-6.192c6.534,5.382,17.233,8.835,31.376-4.7,16.75-16.024,60.4-67.592,66.555-74.882l-47.859-14.515-44.9,68.873c-2.683,4.96-8.426,5.393-11.186,5.6l-.207.016c.346.2.808.456,1.422.781l.294.156Z"/>
                  </g>
                  <g id="Сгруппировать_136" data-name="Сгруппировать 136">
                    <g id="Сгруппировать_132" data-name="Сгруппировать 132">
                      <path id="Контур_121" data-name="Контур 121" d="M773.084,1755.447l-10.733-8.9a2.223,2.223,0,0,1-.442-2.927h0a2.224,2.224,0,0,1,3.248-.522l12.554,10.017Z" fill="#f9f8f4"/>
                      <path id="Контур_122" data-name="Контур 122" d="M772.985,1756.322l-11.1-9.21a2.96,2.96,0,0,1,3.736-4.593l13.452,10.733Zm-9.21-12.976a1.524,1.524,0,0,0-.241.02,1.468,1.468,0,0,0-1.008.654,1.485,1.485,0,0,0,.295,1.957l10.362,8.594,3.171-1.6-11.658-9.3A1.464,1.464,0,0,0,763.775,1743.346Z"/>
                    </g>
                    <g id="Сгруппировать_133" data-name="Сгруппировать 133">
                      <path id="Контур_123" data-name="Контур 123" d="M783.671,1755.459l-13.663-12.234a2.411,2.411,0,0,0-3.416.2h0a2.413,2.413,0,0,0,.184,3.383l12.45,11.317Z" fill="#f9f8f4"/>
                      <path id="Контур_124" data-name="Контур 124" d="M779.136,1759.038l-12.856-11.686a3.161,3.161,0,0,1-.24-4.417,3.15,3.15,0,0,1,4.46-.259l14.407,12.9ZM768.4,1743.347l-.1,0a1.675,1.675,0,0,0-1.03,2.912l12.045,10.95,3.118-1.869-12.918-11.568A1.665,1.665,0,0,0,768.4,1743.347Z"/>
                    </g>
                    <g id="Сгруппировать_134" data-name="Сгруппировать 134">
                      <path id="Контур_125" data-name="Контур 125" d="M785.932,1755.234l-10.7-10.793a2.329,2.329,0,0,0-3-.259h0a2.329,2.329,0,0,0-.354,3.486l9.785,10.5Z" fill="#f9f8f4"/>
                      <path id="Контур_126" data-name="Контур 126" d="M781.551,1759.131l-10.218-10.961a3.065,3.065,0,0,1,4.419-4.248l11.325,11.421Zm-7.975-14.643a1.592,1.592,0,0,0-1.165,2.677l9.353,10.033,3.022-2.072-10.081-10.166A1.586,1.586,0,0,0,773.576,1744.488Z"/>
                    </g>
                    <g id="Сгруппировать_135" data-name="Сгруппировать 135">
                      <path id="Контур_127" data-name="Контур 127" d="M874.034,1837.6c-26.279,10.687-47.639-35.53-61.648-51.331-13.726-15.48-24.545-21.974-42.749-31.805l-9.67-5.222a2.025,2.025,0,0,1,1.764-3.637l37.85,13.15a.478.478,0,0,0,.589-.656l-3.732-7.881a3.166,3.166,0,0,1,1.644-3.953,3.067,3.067,0,0,1,3.727,1.078l10.7,14.691c21.639,17.613,33.954,26.818,50.644,39.237l-3.367,5.615" fill="#f9f8f4"/>
                      <path id="Контур_128" data-name="Контур 128" d="M866.241,1839.9c-17.225,0-32.117-21.719-43.4-38.167-3.985-5.812-7.748-11.3-11.012-14.982-13.293-14.992-23.65-21.441-42.548-31.646l-9.67-5.221a2.762,2.762,0,0,1,2.4-4.967l37.226,12.932-3.468-7.322a3.909,3.909,0,0,1,2.025-4.948,3.826,3.826,0,0,1,4.619,1.339l10.632,14.6c21.075,17.154,32.941,26.058,50.545,39.158l.535.4-3.71,6.187a.737.737,0,1,1-1.264-.758l3.023-5.043c-17.347-12.91-29.2-21.821-50.133-38.859l-.131-.137-10.7-14.691a2.324,2.324,0,0,0-2.845-.833,2.447,2.447,0,0,0-1.233,3.036l3.7,7.8a1.215,1.215,0,0,1-1.5,1.668l-37.85-13.151a1.3,1.3,0,0,0-1.07.006,1.274,1.274,0,0,0-.685.77,1.292,1.292,0,0,0,.594,1.523l9.659,5.215c19.053,10.289,29.5,16.8,42.95,31.966,3.324,3.749,7.113,9.275,11.125,15.125,13.429,19.586,30.135,43.959,49.7,36.011a.737.737,0,0,1,.555,1.366A21.251,21.251,0,0,1,866.241,1839.9Z"/>
                    </g>
                  </g>
                </g>
              </g>
              <path id="Контур_129" data-name="Контур 129" d="M1009.283,1808.119" fill="#f9f8f4" stroke="#000" stroke-linecap="round" stroke-miterlimit="10" stroke-width="1.474"/>
              <g id="Сгруппировать_143" data-name="Сгруппировать 143">
                <g id="Сгруппировать_141" data-name="Сгруппировать 141">
                  <g id="Сгруппировать_139" data-name="Сгруппировать 139">
                    <path id="Контур_130" data-name="Контур 130" d="M947.392,1702.805l.239,25.664c2.678.445,35.259,5.609,39.227.953,0,0-9.9-29.35-10.558-50.255-.033-1.047-4.526-24.819-7.341-31.178-5.643-12.751-21.68-19.3-34.906-14.888-16.145,5.389-18.337,13.955-18.271,28.587.035,7.867-2.339,12.371-4.469,14.826a2.539,2.539,0,0,0,.994,4.027c2.322.926,4.912,2.284,5.881,3.984.9,1.58,2.1,6.416,3.148,11.285a11.924,11.924,0,0,0,14.575,9.049l10.27-2.593" fill="#f9f8f4"/>
                    <path id="Контур_131" data-name="Контур 131" d="M976.482,1732.095c-11.059,0-26.512-2.49-28.972-2.9l-.611-.1-.244-26.265a.715.715,0,0,1-.294.151l-10.269,2.593a12.662,12.662,0,0,1-15.477-9.609c-1.63-7.566-2.567-10.2-3.067-11.075-.707-1.24-2.614-2.507-5.515-3.664a3.309,3.309,0,0,1-1.986-2.282,3.232,3.232,0,0,1,.71-2.913c1.975-2.278,4.323-6.615,4.288-14.34-.07-15.575,2.721-23.93,18.774-29.289,13.718-4.578,30.119,2.422,35.814,15.288,2.812,6.352,7.358,30,7.4,31.454.648,20.558,10.421,49.749,10.52,50.042l.133.4-.271.318C986.031,1731.528,981.755,1732.095,976.482,1732.095Zm-28.12-4.253c13.074,2.13,33.913,4.243,37.651,1.369-1.24-3.779-9.839-30.649-10.449-50.02-.08-1.4-4.572-24.79-7.279-30.9-5.4-12.2-20.973-18.835-34-14.487-15.287,5.1-17.836,12.727-17.766,27.884.036,8.183-2.508,12.844-4.65,15.313a1.776,1.776,0,0,0-.391,1.6,1.806,1.806,0,0,0,1.1,1.261c3.259,1.3,5.361,2.747,6.249,4.3.8,1.4,1.887,5.273,3.228,11.495a11.186,11.186,0,0,0,13.673,8.489l10.27-2.593a.742.742,0,0,1,.9.534.848.848,0,0,1,.022.156.732.732,0,0,1,.468-.174.767.767,0,0,1,.744.731Z"/>
                  </g>
                  <g id="Сгруппировать_140" data-name="Сгруппировать 140">
                    <path id="Контур_132" data-name="Контур 132" d="M917.893,1685.28l4.777,1a.92.92,0,0,1,.212,1.209l-2.825,4.759s-2.925-2.122-.921-4.128C919.136,1688.117,916.316,1687.326,917.893,1685.28Z" fill="#ce0220"/>
                    <path id="Контур_133" data-name="Контур 133" d="M920.278,1693.315l-.654-.474a4.725,4.725,0,0,1-1.919-2.992,1.835,1.835,0,0,0-.931-2.8,2.329,2.329,0,0,1,.536-2.222l.282-.366,5.39,1.126.133.1a1.686,1.686,0,0,1,.636,1.14,1.487,1.487,0,0,1-.258,1.07Zm-2.037-7.209a.671.671,0,0,0-.068.48c.133.406.842.729,1.164.822l1.2.346-.879.884a1.377,1.377,0,0,0-.482,1.091,2.5,2.5,0,0,0,.71,1.361l2.425-4.069a.717.717,0,0,1-.032-.072Z" fill="#ce0220"/>
                  </g>
                  <path id="Контур_134" data-name="Контур 134" d="M961.24,1622.179c-13.658-1.592-31.248,7.692-38.214,15.1-3.569,3.8-6.458,8.327-6.514,14.016-.077,7.964,1.926,14.577,6.745,15.984a5.5,5.5,0,0,0,5.741-2.045,17.961,17.961,0,0,1,5.787-5c3.274-1.558,7.3.7,8.812,4.611.994,2.573.765,6.777-2.115,10.881a7.457,7.457,0,0,0-.026,7.525A33.513,33.513,0,0,0,946.8,1690a18.436,18.436,0,0,0,15.676,5.054l16.692-2.517a52.234,52.234,0,0,1,3.812-21.561C989.48,1655.223,987.692,1625.262,961.24,1622.179Z"/>
                </g>
                <path id="Контур_135" data-name="Контур 135" d="M940.588,1676.954c-13.231,7.853-10.029,20.865-4.287,30.545a3.512,3.512,0,0,0,3.024,1.713h72.7a3.507,3.507,0,0,0,3.495-3.1c.789-6.934.851-23.958-14.987-35.082-15.617-10.968-8.236-31.753-26.657-44.387l-5.541,49.321S946.557,1673.411,940.588,1676.954Z"/>
                <g id="Сгруппировать_142" data-name="Сгруппировать 142">
                  <circle id="Эллипс_17" data-name="Эллипс 17" cx="3.491" cy="3.491" r="3.491" transform="translate(936.127 1675.228)" fill="#f9f8f4"/>
                  <path id="Контур_136" data-name="Контур 136" d="M939.608,1682.949a4.229,4.229,0,1,1,4.194-4.847h0a4.228,4.228,0,0,1-3.567,4.8A4.278,4.278,0,0,1,939.608,1682.949Zm.012-6.984a2.764,2.764,0,0,0-.4.03,2.751,2.751,0,1,0,.4-.03Z"/>
                </g>
              </g>
              <path id="Контур_137" data-name="Контур 137" d="M922.295,1844.5c-10.653,24.862-40.374,84.559-19.066,112.193h132.622s7.287-21.223-4.456-60.036c-4.141-13.69-15.212-35.747-21.906-52.157Z" fill="#9ad3db"/>
              <g id="Сгруппировать_144" data-name="Сгруппировать 144">
                <path id="Прямоугольник_77" data-name="Прямоугольник 77" d="M9.6,0h145.43a9.6,9.6,0,0,1,9.6,9.6V18.99a0,0,0,0,1,0,0H0a0,0,0,0,1,0,0V9.6A9.6,9.6,0,0,1,9.6,0Z" transform="translate(883.286 1942.796)" fill="#42423f"/>
                <path id="Контур_138" data-name="Контур 138" d="M1048.646,1962.523h-166.1v-10.131a10.346,10.346,0,0,1,10.333-10.334h145.431a10.345,10.345,0,0,1,10.333,10.334Zm-164.623-1.475h163.149v-8.656a8.869,8.869,0,0,0-8.859-8.859H892.882a8.869,8.869,0,0,0-8.859,8.859Z" fill="#42423f"/>
              </g>
              <g id="Сгруппировать_145" data-name="Сгруппировать 145">
                <path id="Контур_139" data-name="Контур 139" d="M1061.925,1813.171c-6.184-15.964-28.619-62.213-28.619-62.213l-48.138,33.065,37.735,24.1-22.223-13.529-12.55,17.042s31.522,25.005,47.473,27.21c11.005,1.522,17.879-.466,21.324-2.815h0C1064.388,1830.937,1065.766,1823.084,1061.925,1813.171Z" fill="#f9f8f4"/>
                <path id="Контур_140" data-name="Контур 140" d="M1042.871,1840.109a53.753,53.753,0,0,1-7.369-.537c-15.968-2.207-46.537-26.337-47.83-27.363l-.558-.442,12.837-17.429-16.118-10.292,49.763-34.18.374.771c.224.462,22.517,46.456,28.642,62.268h0c4.095,10.568,2.322,18.552-5.27,23.73C1055.613,1837.814,1051.177,1840.109,1042.871,1840.109Zm-53.724-28.616c4.3,3.34,32.141,24.626,46.556,26.619,12.647,1.748,18.766-1.3,20.809-2.694,6.95-4.741,8.54-12.136,4.725-21.981h0c-5.665-14.624-25.261-55.266-28.22-61.385L986.5,1784l36.8,23.5-.78,1.251-21.646-13.179Z"/>
              </g>
              <g id="Сгруппировать_148" data-name="Сгруппировать 148">
                <path id="Контур_141" data-name="Контур 141" d="M922.152,1844.064l-10.525-39.07-39.815-26.51s17.375-26.653,26.186-39.837a43.115,43.115,0,0,1,34.986-19.156l60.876-1.218a43.109,43.109,0,0,1,28.533,10.043,43.713,43.713,0,0,1,10.184,12.7l26.587,53.573-40.411,10.4-9.251,39.014a1.915,1.915,0,0,1-1.864,1.473H924A1.915,1.915,0,0,1,922.152,1844.064Z" fill="#ff0025"/>
                <g id="Сгруппировать_146" data-name="Сгруппировать 146">
                  <line id="Линия_26" data-name="Линия 26" x2="7.813" y2="31.497" transform="translate(903.814 1773.496)" fill="#f9f8f4"/>
                  <path id="Контур_142" data-name="Контур 142" d="M911.626,1805.731a.739.739,0,0,1-.715-.56l-7.813-31.5a.737.737,0,0,1,1.431-.354l7.814,31.5a.739.739,0,0,1-.538.893A.73.73,0,0,1,911.626,1805.731Z"/>
                </g>
                <g id="Сгруппировать_147" data-name="Сгруппировать 147">
                  <line id="Линия_27" data-name="Линия 27" x1="7.734" y2="33.664" transform="translate(1018.753 1771.329)" fill="#f9f8f4"/>
                  <path id="Контур_143" data-name="Контур 143" d="M1018.754,1805.731a.792.792,0,0,1-.166-.019.737.737,0,0,1-.554-.883l7.734-33.665a.737.737,0,0,1,1.437.331l-7.733,33.664A.738.738,0,0,1,1018.754,1805.731Z"/>
                </g>
              </g>
              <path id="Контур_144" data-name="Контур 144" d="M1010.617,1846.219H921.783a.737.737,0,0,1,0-1.475h88.834a.737.737,0,0,1,0,1.475Z"/>
              <path id="Контур_145" data-name="Контур 145" d="M943.992,1722.3l-.736-2.2a3.667,3.667,0,0,1,3.478-4.828h37.725a3.667,3.667,0,0,1,3.292,5.281l-5.959,12.152Z" fill="#ff0025"/>
            </g>
          </g>
          <g id="Сгруппировать_151" data-name="Сгруппировать 151">
            <path id="Контур_146" data-name="Контур 146" d="M918.379,1696.34a.737.737,0,0,1-.214-1.443,25.822,25.822,0,0,0,16.815-33.491,105.352,105.352,0,0,0-11.8-23.558.737.737,0,0,1,1.209-.844,106.847,106.847,0,0,1,11.979,23.9,27.3,27.3,0,0,1-17.772,35.405A.732.732,0,0,1,918.379,1696.34Z" fill="#919191"/>
            <rect id="Прямоугольник_78" data-name="Прямоугольник 78" width="8.139" height="4.733" rx="2.367" transform="matrix(0.95, -0.314, 0.314, 0.95, 914.411, 1694.557)" fill="#4385f5"/>
          </g>
        </g>
      </g>
    </g>
  </g>
</svg>
