<svg xmlns="http://www.w3.org/2000/svg" width="242.909" height="49.493" viewBox="0 0 242.909 49.493">
  <g id="Сгруппировать_15" data-name="Сгруппировать 15" transform="translate(-96.688 -5208.447)">
    <g id="Сгруппировать_14" data-name="Сгруппировать 14">
      <g id="Сгруппировать_13" data-name="Сгруппировать 13">
        <path id="Контур_2" data-name="Контур 2" d="M141.372,5236.49a2.266,2.266,0,0,1-2.264,2.264h-9.336a3.069,3.069,0,0,0-3.065,3.066v9.335a2.267,2.267,0,0,1-2.264,2.264H116.1a2.267,2.267,0,0,1-2.264-2.264v-10.278h7.526a7.761,7.761,0,0,0,7.753-7.752v-7.238h9.99a2.266,2.266,0,0,1,2.264,2.263v8.34Zm-2.264-13.052H122.641a11.263,11.263,0,0,0-11.251,11.251v2.373h2.449v-2.373a8.812,8.812,0,0,1,8.8-8.8h4.028v7.238a5.31,5.31,0,0,1-5.3,5.3H105.57a6.434,6.434,0,1,1,0-12.867h5.166a3.069,3.069,0,0,0,3.065-3.066v-5.166a6.434,6.434,0,0,1,12.868,0v4.868h2.449v-4.868a8.882,8.882,0,0,0-17.765,0v5.166a.618.618,0,0,1-.617.617H105.57a8.883,8.883,0,0,0,0,17.765h5.82v10.278a4.718,4.718,0,0,0,4.713,4.713h8.34a4.718,4.718,0,0,0,4.712-4.713v-9.335a.618.618,0,0,1,.617-.617h9.336a4.718,4.718,0,0,0,4.712-4.713v-8.34a4.717,4.717,0,0,0-4.712-4.712Z" fill="#f9f8f4"/>
      </g>
    </g>
    <text id="MedPlus" transform="translate(173.597 5248.939)" fill="#f9f8f4" font-size="35.418" font-family="Montserrat-Bold, Montserrat" font-weight="700" letter-spacing="0.025em"><tspan x="0" y="0">MedPlus</tspan></text>
  </g>
</svg>
